<?xml version="1.0" encoding="utf-8"?>
<!-- Generator: Adobe Illustrator 22.0.1, SVG Export Plug-In . SVG Version: 6.00 Build 0)  -->
<svg version="1.1" id="Layer_1" xmlns="http://www.w3.org/2000/svg" xmlns:xlink="http://www.w3.org/1999/xlink" x="0px" y="0px"
	 viewBox="0 0 400 400" style="enable-background:new 0 0 400 400;" xml:space="preserve">
<style type="text/css">
	.st0{fill:#5588DD;}
</style>
<g>
	<g>
		<path class="st0" d="M377,358.3c0,5.5-0.2,10.2-0.7,14s-1.2,6.9-2.1,9.3c-1,2.4-2.1,4-3.6,5c-1.4,1-3,1.4-4.7,1.4H249.7
			c-7.6,0-13.5-2.2-17.6-6.6s-6.1-10.8-6.1-19.1v-13.1c0-3.2,0.2-6,0.6-8.4c0.4-2.4,1.2-4.9,2.4-7.4c1.2-2.6,3.1-5.3,5.6-8.3
			c2.5-2.9,6.9-7.1,13.3-12.6c6.4-5.4,12.8-12,19.4-19.7s12-16.4,16.4-26.1s7.6-20.6,9.6-32.7c2-12.1,3-25.8,3-41.3
			c0-11.6-0.8-22.6-2.3-33.1s-3.9-20.1-7.1-28.8c-3.2-8.8-7.4-16.7-12.4-23.8c-5-7.1-11.1-13.1-18.1-18s-15.1-8.6-24.3-11.3
			c-9.1-2.7-19.5-4-31.1-4c-12,0-22.7,1.6-32.3,4.7c-9.5,3.1-17.9,7.4-25.1,12.8c-7.2,5.4-13.3,11.8-18.3,19.3
			c-5,7.4-9,15.5-12.1,24.1c-3.1,8.7-5.4,17.7-6.9,27.1c-1.4,9.4-2.1,18.9-2.1,28.4c0,16.8,1,31.4,3.1,44s5.3,23.7,9.6,33.3
			c4.3,9.6,9.7,18.2,16.1,25.7c6.5,7.5,12.9,14,19.4,19.4s10.9,9.6,13.4,12.6s4.3,5.7,5.4,8.3c1.1,2.6,1.9,5,2.3,7.4
			c0.4,2.4,0.6,5.2,0.6,8.4v13.1c0,8.4-2,14.8-6.1,19.1c-4.1,4.4-9.8,6.6-17.3,6.6H34.1c-1.9,0-3.5-0.5-4.9-1.4
			c-1.3-1-2.5-2.6-3.4-5c-1-2.4-1.7-5.5-2.1-9.3c-0.5-3.8-0.7-8.5-0.7-14c0-11.2,1-19.1,2.9-23.7s4.7-6.9,8.3-6.9h56.5
			c-10.3-6.5-19.4-14.2-27.4-23.1s-14.8-18.9-20.6-30c-5.7-11-10-23.3-13-36.8s-4.4-28.1-4.4-43.7c0-27.8,4.1-52.9,12.3-75.2
			c8.2-22.4,19.9-41.5,35.3-57.4c15.3-15.9,34-28.1,56-36.7S175.5,12,203.1,12c28.2,0,53,4,74.5,12.1s39.4,19.7,53.8,34.8
			s25.2,33.7,32.5,55.7s11,46.8,11,74.4c0,16.9-1.5,32.5-4.6,46.5c-3,14.1-7.4,26.9-13,38.4s-12.5,21.7-20.6,30.7
			c-8.1,8.9-17.2,16.7-27.3,23.1h56.2c3.6,0,6.4,2.3,8.3,6.9C376.1,339.2,377,347.1,377,358.3z"/>
	</g>
</g>
</svg>
