<?xml version="1.0" encoding="utf-8"?>
<!-- Generator: Adobe Illustrator 22.0.1, SVG Export Plug-In . SVG Version: 6.00 Build 0)  -->
<svg version="1.1" id="Layer_1" xmlns="http://www.w3.org/2000/svg" xmlns:xlink="http://www.w3.org/1999/xlink" x="0px" y="0px"
	 width="800px" height="800px" viewBox="0 0 800 800" style="enable-background:new 0 0 800 800;" xml:space="preserve">
<style type="text/css">
	.st0{fill:#FFFFFF;}
	.st1{enable-background:new    ;}
	.st2{fill:#5588DD;}
</style>
<rect x="250" y="250" class="st0" width="300" height="300"/>
<g>
	<g class="st1">
		<path d="M367.9,431.4c0,1.6-0.1,3-0.2,4.1s-0.4,2-0.6,2.7c-0.3,0.7-0.6,1.2-1,1.5s-0.9,0.4-1.4,0.4h-34.2c-2.2,0-4-0.6-5.2-1.9
			s-1.8-3.2-1.8-5.6v-3.9c0-1,0.1-1.8,0.2-2.5s0.3-1.4,0.7-2.2c0.4-0.8,0.9-1.6,1.6-2.4c0.7-0.9,2-2.1,3.9-3.7s3.8-3.5,5.7-5.8
			s3.5-4.8,4.8-7.7c1.3-2.9,2.2-6.1,2.8-9.6c0.6-3.6,0.9-7.6,0.9-12.1c0-3.4-0.2-6.7-0.7-9.7c-0.4-3.1-1.1-5.9-2.1-8.5
			s-2.2-4.9-3.7-7s-3.3-3.9-5.3-5.3c-2.1-1.4-4.5-2.5-7.1-3.3c-2.7-0.8-5.7-1.2-9.2-1.2s-6.7,0.5-9.5,1.4s-5.3,2.2-7.4,3.8
			c-2.1,1.6-3.9,3.5-5.4,5.7s-2.6,4.5-3.6,7.1c-0.9,2.5-1.6,5.2-2,8s-0.6,5.6-0.6,8.4c0,4.9,0.3,9.2,0.9,12.9c0.6,3.7,1.6,7,2.8,9.8
			c1.3,2.8,2.8,5.3,4.7,7.6c1.9,2.2,3.8,4.1,5.7,5.7c1.9,1.6,3.2,2.8,3.9,3.7c0.7,0.9,1.3,1.7,1.6,2.4s0.6,1.5,0.7,2.2
			s0.2,1.5,0.2,2.5v3.9c0,2.5-0.6,4.3-1.8,5.6c-1.2,1.3-2.9,1.9-5.1,1.9h-34c-0.6,0-1-0.1-1.4-0.4s-0.7-0.8-1-1.5s-0.5-1.6-0.6-2.7
			s-0.2-2.5-0.2-4.1c0-3.3,0.3-5.6,0.8-7c0.6-1.3,1.4-2,2.4-2h16.6c-3-1.9-5.7-4.2-8.1-6.8c-2.4-2.6-4.4-5.6-6-8.8
			c-1.7-3.2-3-6.9-3.8-10.8c-0.9-4-1.3-8.3-1.3-12.8c0-8.2,1.2-15.5,3.6-22.1s5.9-12.2,10.4-16.9c4.5-4.7,10-8.3,16.5-10.8
			s13.8-3.8,21.9-3.8c8.3,0,15.6,1.2,21.9,3.6s11.6,5.8,15.8,10.2c4.2,4.5,7.4,9.9,9.6,16.4s3.2,13.8,3.2,21.9c0,5-0.4,9.5-1.3,13.7
			c-0.9,4.1-2.2,7.9-3.8,11.3c-1.7,3.4-3.7,6.4-6,9c-2.4,2.6-5.1,4.9-8,6.8h16.5c1.1,0,1.9,0.7,2.4,2
			C367.7,425.8,367.9,428.1,367.9,431.4z"/>
	</g>
	<g class="st1">
		<path class="st2" d="M414.1,442.7c-29.8,0-38.9-24.1-38.9-45.8v-65.2h25.6V397c0,16.5,4,23.7,13.2,23.7c9.3,0,13.2-7.2,13.2-23.7
			v-65.2h25.6V397C453,418.6,443.9,442.7,414.1,442.7z"/>
	</g>
	<g class="st1">
		<path class="st2" d="M486.3,436.7v33.5h-25.1V355.9h25.1l-0.2,6.2c0,0,8.6-8.8,17.9-8.8c22.4,0,32.2,23.9,32.2,41.8
			c0,19.3-6,47.6-35.8,47.6C492.4,442.7,486.3,436.7,486.3,436.7z M486.3,381v18.4c0,9.6,1,23.2,13.4,23.2c11.4,0,11-18.7,11-26.1
			c0-7.6-0.2-22.5-11-22.5C492.7,373.9,490.1,377.7,486.3,381z"/>
	</g>
</g>
</svg>
