<?xml version="1.0" encoding="utf-8"?>
<!-- Generator: Adobe Illustrator 22.0.1, SVG Export Plug-In . SVG Version: 6.00 Build 0)  -->
<svg version="1.1" id="Layer_1" xmlns="http://www.w3.org/2000/svg" xmlns:xlink="http://www.w3.org/1999/xlink" x="0px" y="0px"
	 width="800px" height="800px" viewBox="0 0 800 800" style="enable-background:new 0 0 800 800;" xml:space="preserve">
<style type="text/css">
	.st0{fill:#FFFFFF;}
	.st1{enable-background:new    ;}
	.st2{fill:#5588DD;}
</style>
<g>
	<rect x="250" y="250" class="st0" width="300" height="300"/>
	<g>
		<g class="st1">
			<path d="M394.7,446.7c0,1.6-0.1,3-0.2,4.1c-0.1,1.1-0.4,2-0.6,2.7c-0.3,0.7-0.6,1.2-1.1,1.5c-0.4,0.3-0.9,0.4-1.4,0.4h-34.3
				c-2.2,0-4-0.6-5.2-1.9c-1.2-1.3-1.8-3.2-1.8-5.6V444c0-1,0.1-1.8,0.2-2.5c0.1-0.7,0.4-1.4,0.7-2.2c0.4-0.8,0.9-1.6,1.6-2.4
				c0.7-0.9,2-2.1,3.9-3.7c1.9-1.6,3.8-3.5,5.7-5.8c1.9-2.3,3.6-4.8,4.8-7.7c1.3-2.9,2.2-6.1,2.8-9.7c0.6-3.6,0.9-7.6,0.9-12.2
				c0-3.4-0.2-6.7-0.7-9.8c-0.5-3.1-1.2-5.9-2.1-8.5c-1-2.6-2.2-4.9-3.7-7c-1.5-2.1-3.3-3.9-5.4-5.3c-2.1-1.4-4.5-2.5-7.2-3.3
				c-2.7-0.8-5.8-1.2-9.2-1.2c-3.5,0-6.7,0.5-9.5,1.4c-2.8,0.9-5.3,2.2-7.4,3.8c-2.1,1.6-3.9,3.5-5.4,5.7c-1.5,2.2-2.7,4.6-3.6,7.1
				c-0.9,2.6-1.6,5.2-2,8s-0.6,5.6-0.6,8.4c0,4.9,0.3,9.3,0.9,13c0.6,3.7,1.6,7,2.8,9.8c1.3,2.8,2.9,5.4,4.8,7.6
				c1.9,2.2,3.8,4.1,5.7,5.7c1.9,1.6,3.2,2.8,4,3.7c0.7,0.9,1.3,1.7,1.6,2.4c0.3,0.8,0.6,1.5,0.7,2.2c0.1,0.7,0.2,1.5,0.2,2.5v3.9
				c0,2.5-0.6,4.4-1.8,5.6c-1.2,1.3-2.9,1.9-5.1,1.9h-34.4c-0.6,0-1-0.1-1.4-0.4c-0.4-0.3-0.7-0.8-1-1.5c-0.3-0.7-0.5-1.6-0.6-2.7
				c-0.1-1.1-0.2-2.5-0.2-4.1c0-3.3,0.3-5.6,0.8-7c0.6-1.3,1.4-2,2.4-2h16.7c-3-1.9-5.7-4.2-8.1-6.8c-2.4-2.6-4.4-5.6-6.1-8.8
				c-1.7-3.3-3-6.9-3.8-10.9c-0.9-4-1.3-8.3-1.3-12.9c0-8.2,1.2-15.6,3.6-22.2c2.4-6.6,5.9-12.2,10.4-16.9c4.5-4.7,10-8.3,16.5-10.8
				s13.8-3.8,22-3.8c8.3,0,15.6,1.2,22,3.6c6.3,2.4,11.6,5.8,15.9,10.3c4.2,4.5,7.4,9.9,9.6,16.4c2.2,6.5,3.2,13.8,3.2,22
				c0,5-0.5,9.6-1.3,13.7c-0.9,4.2-2.2,7.9-3.8,11.3c-1.7,3.4-3.7,6.4-6.1,9.1c-2.4,2.6-5.1,4.9-8,6.8h16.6c1.1,0,1.9,0.7,2.4,2
				C394.4,441.1,394.7,443.4,394.7,446.7z"/>
		</g>
		<g class="st1">
			<path class="st2" d="M454.3,344.5l55.5,55.5h-27.8v55.5h-55.5V400h-27.8L454.3,344.5z"/>
		</g>
	</g>
</g>
</svg>
