<svg id="lineas" xmlns="http://www.w3.org/2000/svg" viewBox="0 0 475.59 448.34"><defs><style>.cls-1,.cls-2,.cls-3,.cls-4{fill:none;}.cls-1,.cls-5{stroke:#1d1d1b;}.cls-1,.cls-2,.cls-3,.cls-4,.cls-5{stroke-miterlimit:10;}.cls-1,.cls-2,.cls-4,.cls-5{stroke-width:7px;}.cls-2{stroke:#fbc73a;}.cls-3,.cls-4{stroke:#41bdd7;}.cls-5{fill:#1d1d1b;}</style></defs><polygon class="cls-1" points="428.54 260.72 322.24 444.84 152.65 444.84 131.71 408.56 301.3 408.56 407.6 224.45 428.54 260.72"/><line class="cls-1" x1="153.24" y1="445.86" x2="152.65" y2="444.84"/><polygon class="cls-1" points="322.56 371.74 301.3 408.56 88.7 408.56 24.92 298.08 4.04 261.92 25.55 224.68 46.42 260.84 110.45 371.74 322.56 371.74"/><polygon class="cls-1" points="153.24 371.74 110.45 371.74 4.15 187.62 67.93 77.15 89.19 40.33 131.98 40.33 110.72 77.15 46.94 187.62 153.24 371.74"/><line class="cls-2" x1="46.94" y1="187.62" x2="67.44" y2="224.44"/><polygon class="cls-1" points="343.91 40.33 173.74 40.33 67.82 223.78 46.94 187.62 153.24 3.5 322.56 3.5 343.91 40.33"/><polygon class="cls-1" points="470.3 183.51 449.19 222.54 428.95 187.48 365.25 77.15 152.66 77.15 173.74 40.33 386.34 40.33 470.3 183.51"/><line class="cls-3" x1="471.55" y1="261.27" x2="471.46" y2="261.12"/><line class="cls-4" x1="450.29" y1="224.45" x2="449.19" y2="222.54"/><polygon class="cls-1" points="471.55 261.27 407.77 371.74 386.51 408.56 343.19 408.56 364.44 371.74 364.45 371.74 428.54 260.72 322.56 77.15 365.25 77.15 471.55 261.27"/><polygon class="cls-5" points="428.54 260.72 364.45 371.74 364.44 371.74 428.54 260.72"/></svg>