<svg id="Layer_1" xmlns="http://www.w3.org/2000/svg" viewBox="0 0 4000 4000">
  <defs><style>.cls-1{fill:#888;}</style></defs>
  <path class="cls-1" d="M2355,1554.67q-51.33-84.14-136.48-131.35t-214.46-47.2q-114.94,0-201.11,42.07t-141.61,123.13q-55.41,81.11-83.12,195t-27.7,259.61q0,135.43,22.57,249.34T1646,2443.29q50.27,84.16,136.47,130.31t213.44,46.18q117,0,203.17-42.08t141.6-122.1q55.41-80,82.09-193.94t26.68-259.61q0-135.45-21.55-249.34T2355,1554.67Z"/>
  <path class="cls-1" d="M2000,0C895.43,0,0,895.43,0,2000S895.43,4000,2000,4000s2000-895.43,2000-2000S3104.57,0,2000,0Zm919.4,2408.39q-61.56,192.93-186.75,332.47t-314,215.48q-188.85,75.9-441.24,75.94-244.25,0-424.81-67.73t-299.62-197q-119.06-129.3-176.5-318.1t-57.46-431q0-234,62.59-427.89t187.78-332.47q125.16-138.52,313-214.45t440.2-75.94q246.27,0,426.87,66.7t298.6,196q118,129.28,175.47,318.1t57.46,433Q2981,2215.49,2919.4,2408.39Z"/>
</svg>
