<svg id="Layer_1" xmlns="http://www.w3.org/2000/svg" viewBox="0 0 4000 4000">
  <defs><style>.cls-1{fill:#8d5;}</style></defs>
  <path class="cls-1" d="M2545.89,1323.79q-79-122.08-210.35-188.81t-328.36-66.7q-199.08,0-332.46,74.91t-215.49,200.09q-82.1,125.21-116,292.45t-33.86,354q0,217.54,32.84,391t110.82,296.55q78,123.14,209.33,187.78t330.41,64.64q199,0,332.46-73.88t215.49-201.11q82-127.23,115.95-296.56T2690.58,1998q0-209.34-32.84-380.7T2545.89,1323.79Z"/>
  <path class="cls-1" d="M2000,0C895.43,0,0,895.43,0,2000S895.43,4000,2000,4000s2000-895.43,2000-2000S3104.57,0,2000,0ZM3174.91,2560.26q-82.11,260.65-244.22,442.26t-401.21,277.05Q2290.37,3375,1976.4,3375q-309.92,0-540.77-81.06t-384.79-247.3Q896.93,2880.41,820,2623.88t-77-607.46q0-322.17,82.09-579.76T1069.31,998.5q162.09-180.56,401.21-277T2025.65,625q301.68,0,532.56,80T2944,951.3Q3099,1117.55,3178,1371t79,598.23Q3257,2299.66,3174.91,2560.26Z"/>
</svg>
