<svg id="Layer_1" xmlns="http://www.w3.org/2000/svg" viewBox="0 0 4000 4000">
  <defs><style>.cls-1{fill:#58d;}</style></defs>
  <path class="cls-1" d="M2545.9,1320.71q-79-121.07-210.36-186.75t-328.36-65.68q-199.08,0-332.46,74.91t-215.49,201.12q-82.1,126.21-116,293.47t-33.86,352q0,219.62,32.84,394t110.82,295.52q78,121.11,209.33,185.73t330.41,64.64q199,0,332.46-74.9t215.49-203.17q82-128.24,115.95-299.63t33.86-362.22q0-209.33-32.84-378.64T2545.9,1320.71Zm-131.35,762.41q-5.15,40-15.39,63.61t-25.65,34.89a55.89,55.89,0,0,1-33.86,11.29H1654.2q-20.55,0-34.89-11.29t-24.63-34.89q-10.29-23.57-15.39-63.61t-5.13-99.54q0-57.43,5.13-97.48t15.39-64.65q10.24-24.62,24.63-34.88t34.89-10.27h685.45a59.86,59.86,0,0,1,33.86,10.27q15.39,10.29,25.65,34.88t15.39,64.65q5.1,40,5.13,97.48Q2419.68,2043.13,2414.55,2083.12Z"/>
  <path class="cls-1" d="M2000,0C895.43,0,0,895.43,0,2000S895.43,4000,2000,4000s2000-895.43,2000-2000S3104.57,0,2000,0ZM3174.91,2552.05q-82.11,262.72-243.19,445.34t-400.19,280.13Q2292.43,3375,1976.4,3375q-309.92,0-540.77-80t-384.79-246.27Q896.93,2882.46,820,2627t-77-608.49q0-320.15,82.09-578.73t244.22-439.18Q1231.4,820,1470.52,722.48T2025.65,625q299.61,0,529.48,78T2941,945.15q155.94,164.2,236,416.6T3257,1961Q3257,2289.38,3174.91,2552.05Z"/>
</svg>
