<svg id="Layer_1" xmlns="http://www.w3.org/2000/svg" viewBox="0 0 4000 4000">
	<defs><style>.cls-1{fill:#fb0;}</style></defs>
	<path class="cls-1" d="M2000,0C895.43,0,0,895.43,0,2000S895.43,4000,2000,4000s2000-895.43,2000-2000S3104.57,0,2000,0ZM3267.26,3238.53q-5.15,41.07-15.4,66.69t-25.65,35.92a59.62,59.62,0,0,1-33.86,10.26H2357.09q-82.11,0-126.21-47.2t-44.13-137.5v-94.41q0-34.86,4.11-60.54t17.44-53.35q13.32-27.71,40-59.52t95.43-90.3q68.73-58.48,139.55-141.6t118-187.78q47.19-104.67,68.76-235t21.54-296.55q0-125.16-16.41-238.06t-51.31-207.28Q2589,1408,2534.61,1331a520.54,520.54,0,0,0-130.32-129.29q-75.95-52.34-174.44-81.07t-223.69-28.73q-129.3,0-231.91,33.87t-180.6,92.35a560.62,560.62,0,0,0-131.34,138.52A807.39,807.39,0,0,0,1375.09,1530a1018.12,1018.12,0,0,0-49.25,195,1361.4,1361.4,0,0,0-15.39,204.2q0,180.6,22.57,316t68.75,239.09q46.17,103.65,116,184.7t139.56,139.55q69.73,58.5,96.45,90.3t39,59.52q12.32,27.7,16.42,53.35t4.1,60.54v94.41q0,90.33-44.12,137.5T1645,3351.4H807.65q-20.53,0-34.89-10.26t-24.63-35.92q-10.29-25.63-15.39-66.69T727.61,3138q0-121.06,20.52-170.34t59.52-49.25H1214a919.19,919.19,0,0,1-197-166.24q-86.19-96.43-147.76-215.48t-93.38-264.74q-31.85-145.7-31.81-314,0-299.61,88.24-540.77t253.46-412.5Q1250.9,833.33,1488,741t534.6-92.35q303.71,0,535.64,87.22t386.85,250.37q154.92,163.15,234,400.19T3258,1921q0,182.69-32.83,334.51t-93.38,276q-60.55,124.18-147.76,220.61a967.07,967.07,0,0,1-196,166.24h404.29q39,0,59.51,49.25T3272.39,3138Q3272.39,3197.51,3267.26,3238.53Z"/>
</svg>
