<svg id="Layer_1" xmlns="http://www.w3.org/2000/svg" viewBox="0 0 4000 4000">
  <defs><style>.cls-1{fill:#f88;}</style></defs>
  <path class="cls-1" d="M2000,0C895.43,0,0,895.43,0,2000S895.43,4000,2000,4000s2000-895.43,2000-2000S3104.57,0,2000,0ZM3286.76,2428.92q-58.5,196-160.08,326.3t-238.06,195q-136.51,64.64-294.5,64.64-102.64,0-192.91-19.49T2236,2933.77q-74.94-42-136.48-108.77T1992.82,2666q-86.19,178.55-231.91,263.71t-361.19,85.17q-151.89,0-287.31-61.57t-237-188.8q-101.58-127.23-161.1-322.2T654.76,1980.5a1304.45,1304.45,0,0,1,19.49-224.72,2185.59,2185.59,0,0,1,48.23-214.46q28.72-102.58,64.65-190.85t69.77-155q33.87-66.66,58.49-108.77t45.15-60.54q20.49-18.47,71.83-29.76t166.23-11.28q71.81,0,122.11,5.13t80,13.34q29.71,8.22,42.06,20.52t12.32,26.68q0,18.47-44.12,92.35t-96.46,192.91q-52.33,119.06-96.46,281.16T1174,1974.35q0,158.05,22.58,275t62.59,192.91q40,75.94,98.51,113.9t128.26,38a224.77,224.77,0,0,0,103.64-24.62q48.2-24.63,82.09-79T1724,2338.62q18.48-97.45,18.47-249.35V1551.58a60.13,60.13,0,0,1,12.32-36.94q12.3-16.4,41-27.7t77-17.44q48.2-6.16,124.16-6.16,73.88,0,125.19,6.16t81.06,17.44q29.73,11.31,42.07,27.7a60.13,60.13,0,0,1,12.32,36.94v537.69q0,129.3,14.36,224.72t46.18,153.92q31.79,58.49,82.09,92.35t124.15,33.86q71.82,0,127.25-41t94.4-119q39-78,59.51-191.89T2826,1982.55q0-205.18-43.09-367.35t-96.46-280.13q-53.38-118-96.45-188.8t-43.1-93.38c0-9.55,3.4-18.47,10.27-26.68s20.16-15.39,40-21.55,46.17-10.93,79-14.36,75.22-5.13,127.23-5.13q59.51,0,99.54,3.08t67.72,9.23q27.7,6.15,46.18,16.42a144.15,144.15,0,0,1,31.81,23.6q13.31,13.37,40,56.44t59.52,110.82Q3181,1272.49,3216,1359.7t63.62,186.76a1895.68,1895.68,0,0,1,47.2,208.3,1296.71,1296.71,0,0,1,18.47,217.53Q3345.24,2232.94,3286.76,2428.92Z"/>
</svg>
