<?xml version="1.0" encoding="utf-8"?>
<!-- Generator: Adobe Illustrator 22.0.1, SVG Export Plug-In . SVG Version: 6.00 Build 0)  -->
<svg version="1.1" id="Layer_1" xmlns="http://www.w3.org/2000/svg" xmlns:xlink="http://www.w3.org/1999/xlink" x="0px" y="0px"
	 viewBox="0 0 800 800" style="enable-background:new 0 0 800 800;" xml:space="preserve">
<style type="text/css">
	.st0{fill:#5588DD;}
</style>
<g>
	<path d="M64.7734375,409.4072266c0-22.2724609,13.0556641-49.9199219,42.2402344-49.9199219
		s42.2402344,27.6474609,42.2402344,49.9199219s-13.0556641,49.9199219-42.2402344,49.9199219
		S64.7734375,431.6796875,64.7734375,409.4072266z M92.6132813,409.4072266
		c0,16.7041016,5.3759766,26.8798828,14.4003906,26.8798828s14.4003906-10.3681641,14.4003906-26.8798828
		c0-16.7041016-5.3759766-26.6884766-14.4003906-26.6884766S92.6132813,392.703125,92.6132813,409.4072266z"/>
	<path d="M256.1962891,389.8232422c0-4.9921875-1.1523438-7.4882813-4.7998047-7.4882813
		c-9.4082031,0-16.8964844,6.3359375-16.8964844,6.3359375v67.7763672h-27.8398438v-66.0478516
		c0-6.3359375-1.5361328-7.8720703-4.6083984-7.8720703c-9.5996094,0-13.6318359,4.9912109-17.2802734,7.6796875v66.2402344
		h-27.8398438v-94.2724609h27.8398438v7.1044922c5.1845703-4.0322266,15.1679688-9.7919922,22.0800781-9.7919922
		c16.7041016,0,22.0800781,9.7919922,22.0800781,9.7919922s14.5927734-9.7919922,24.0009766-9.7919922
		c24,0,31.1044922,13.0556641,31.1044922,28.4160156v68.5439453h-27.8408203V389.8232422z"/>
	<path d="M318.9794922,411.9033203c-0.1923828,0.9599609-0.1923828,2.1123047-0.1923828,3.0722656
		c0,8.8320313,3.6484375,21.5039063,14.5927734,21.5039063c8.6396484,0,19.3916016-3.0722656,26.4960938-8.2558594
		l8.0634766,17.2802734c-9.2158203,7.6796875-23.8076172,14.015625-35.5195313,14.015625
		c-29.5683594,0-41.4726563-26.4960938-41.4726563-52.2246094c0-25.7275391,18.2402344-47.8076172,44.9287109-47.8076172
		c20.3515625,0,36.8642578,16.8955078,37.4394531,37.0556641c0.1923828,5.1845703,0.3847656,10.1757813,0.3847656,15.3603516
		H318.9794922z M334.53125,377.9189453c-7.8720703,0-12.8632813,9.5996094-13.6318359,16.3203125h26.6884766
		C347.3955078,386.7509766,343.171875,377.9189453,334.53125,377.9189453z"/>
	<path d="M452.8027344,395.5830078c0,16.5117188-12.0966797,27.6484375-27.0722656,30.5283203
		c-4.0322266,0.7675781-14.9765625,1.34375-14.9765625,7.1044922c0,4.03125,11.9042969,3.2636719,15.7441406,3.2636719h6.1445313
		c14.2080078,0,26.6884766,5.5683594,26.6884766,21.3125c0,24.3837891-24.1923828,36.671875-45.3125,36.671875
		c-15.7441406,0-36.4804688-5.9521484-36.4804688-26.6884766c0-8.2558594,9.4082031-16.1279297,16.5117188-18.6240234
		c-5.1835938-1.5361328-10.7519531-6.7197266-10.7519531-12.8642578c0-6.7197266,8.0644531-12.2880859,12.8642578-14.9755859
		c-9.4082031-4.6083984-16.1279297-17.0878906-16.1279297-26.1123047c0-21.5039063,15.3603516-35.7119141,37.8242188-35.7119141
		c5.3759766,0,11.1357422,0.7675781,16.5117188,2.8798828h23.6162109v20.1601563l-9.0234375-2.3046875
		C448.9628906,380.2226563,452.8027344,386.9433594,452.8027344,395.5830078z M412.6738281,455.8710938
		c0,0-8.4472656,5.1845703-8.4472656,9.2167969c0,6.3359375,4.2236328,8.2558594,10.5595703,8.2558594
		c9.984375,0,18.6240234-5.7597656,18.6240234-14.2080078c0-3.8398438-6.9121094-3.2646484-10.5595703-3.2646484H412.6738281z
		 M407.4902344,393.2792969c0,6.9121094,1.34375,13.8242188,9.5996094,13.8242188
		c7.296875,0,8.8330078-7.6806641,8.8330078-12.8642578c0-6.1445313-1.7285156-13.6318359-9.2167969-13.6318359
		C409.21875,380.6074219,407.4902344,387.1347656,407.4902344,393.2792969z"/>
	<path d="M528.640625,459.3271484c-9.984375,0-15.5527344-6.5273438-16.7041016-15.1679688
		c-3.4560547,9.4082031-13.8242188,15.1679688-23.4248047,15.1679688c-18.8164063,0-29.3759766-9.4072266-29.3759766-28.6074219
		c0-6.7207031,3.6484375-14.4003906,6.9121094-20.3525391l42.2402344-16.8964844v-4.03125
		c0-5.1845703-5.9521484-7.6806641-10.3681641-7.6806641c-8.8320313,0-16.3203125,3.4560547-23.2324219,8.8320313
		l-9.7919922-15.7441406c9.0244141-8.6396484,23.0400391-15.359375,35.7128906-15.359375
		c18.2392578,0,33.5996094,8.4472656,33.5996094,28.4160156v50.1123047c0,1.7275391,0,4.9921875,2.3046875,4.9921875
		c0.9599609,0,1.9199219-0.3847656,2.6875-0.7685547l4.2236328,13.0566406
		C538.8164063,457.5996094,533.8242188,459.3271484,528.640625,459.3271484z M486.9755859,420.7353516
		c-0.9599609,2.8798828-1.7275391,6.5283203-1.7275391,9.5996094c0,4.0322266,3.6474609,6.7207031,7.4882813,6.7207031
		c11.1357422,0,16.1279297-10.1767578,16.1279297-20.1601563v-5.1845703L486.9755859,420.7353516z"/>
	<path class="st0" d="M598.7167969,459.3271484c-33.2158203,0-43.3925781-26.8798828-43.3925781-51.0722656v-72.7685547h28.6083984
		v72.7685547c0,18.4326172,4.4160156,26.4960938,14.7841797,26.4960938s14.7841797-8.0634766,14.7841797-26.4960938v-72.7685547
		h28.6083984v72.7685547C642.109375,432.4472656,631.9326172,459.3271484,598.7167969,459.3271484z"/>
	<path class="st0" d="M679.3564453,452.6074219v37.4404297h-28.03125V362.3671875h28.03125l-0.1914063,6.9121094
		c0,0,9.5996094-9.7919922,19.9677734-9.7919922c24.9599609,0,35.9042969,26.6875,35.9042969,46.65625
		c0,21.5039063-6.7197266,53.1835938-39.9365234,53.1835938
		C686.0771484,459.3271484,679.3564453,452.6074219,679.3564453,452.6074219z M679.3564453,390.3994141v20.5439453
		c0,10.7519531,1.1523438,25.9199219,14.9765625,25.9199219c12.671875,0,12.2880859-20.9277344,12.2880859-29.1845703
		c0-8.4472656-0.1923828-25.1513672-12.2880859-25.1513672
		C686.4609375,382.5273438,683.5810547,386.7509766,679.3564453,390.3994141z"/>
</g>
</svg>
